<svg xmlns="http://www.w3.org/2000/svg" xmlns:xlink="http://www.w3.org/1999/xlink" id="Layer_1" x="0" y="0" version="1.1" viewBox="-49 38 100 125" xml:space="preserve" style="enable-background:new -49 38 100 125"><style type="text/css">.st0{fill:#b2da64}.st1{fill:none;stroke:#d7d6d3;stroke-miterlimit:10}</style><path d="M29,100.1c0,11.6-9.5,21.1-21.1,21.1s-21.1-9.5-21.1-21.1S-3.7,79,7.9,79c4.3,0,8.4,1.3,11.9,3.7l-4.2,0.6	l0.5,3.6l10-1.5l-1.5-10L21,75.9l0.5,3.6c-4-2.7-8.8-4.1-13.7-4.1c-13.6,0-24.7,11.1-24.7,24.7s11.1,24.7,24.7,24.7	s24.8-11.1,24.8-24.7H29z M1.6,84.4l-3.3,1.4l7.8,18.6l18.6-7.8l-1.4-3.3L8,99.7L1.6,84.4z M-32.1,90h12v-3.6h-12V90z M-22.1,98.3	h-16.8v3.6h16.8V98.3z M-32.1,113.8h12v-3.6h-12V113.8z" class="st0"/><circle cx=".3" cy="99.8" r="47.9" class="st1"/></svg>